Coordinates
version=1
nRows=13
nColumns=36
inDegrees=yes

Units are S.I. units (second, meters, Newtons, ...)
If the header above contains a line with 'inDegrees', this indicates whether rotational values are in degrees (yes) or radians (no).

endheader
time	pelvis_tilt	pelvis_list	pelvis_rotation	pelvis_tx	pelvis_ty	pelvis_tz	hip_flexion_r	hip_adduction_r	hip_rotation_r	knee_angle_r	knee_angle_r_beta	ankle_angle_r	subtalar_angle_r	mtp_angle_r	hip_flexion_l	hip_adduction_l	hip_rotation_l	knee_angle_l	knee_angle_l_beta	ankle_angle_l	subtalar_angle_l	mtp_angle_l	lumbar_extension	lumbar_bending	lumbar_rotation	arm_flex_r	arm_add_r	arm_rot_r	elbow_flex_r	pro_sup_r	arm_flex_l	arm_add_l	arm_rot_l	elbow_flex_l	pro_sup_l
      9.75000000	      5.42128677	     -2.19427662	      0.62963930	      0.08995747	      0.93530167	      0.04851247	     38.26640526	     -6.54167510	     -0.10041118	      9.29354700	      0.16220299	     -8.71989094	    -17.07180322	     -7.49999987	      6.28883688	      4.12167741	      3.00413630	     12.49737413	      0.21812033	     11.86029456	     -3.19989565	     -7.49999987	    -10.85399525	     -0.51702284	     -4.83134366	     33.28937688	      3.55023101	     65.29703681	    130.03439282	     94.82061628	     39.17734720	     -0.68001705	     65.35590201	    126.17986073	     74.10727549
      9.76666670	      6.02046153	     -2.36471596	      0.39837780	      0.09138944	      0.93490270	      0.04861583	     37.92062769	     -6.09341837	     -2.23665028	      7.64756546	      0.13347520	    -10.08939253	    -17.24587395	     -7.49999987	      5.28694002	      3.97944587	      2.59805237	     11.88880186	      0.20749874	     11.63787694	     -3.32121716	     -7.49999987	    -11.47800731	     -0.43747391	     -4.68391689	     33.51581001	      3.69169309	     65.32772542	    129.90235160	     94.90632051	     39.07451378	     -0.74409402	     65.42895295	    126.36308204	     74.07901015
      9.78333330	      6.72808066	     -2.68581843	      0.28623367	      0.09052448	      0.93762398	      0.04836191	     37.25158494	     -5.56685138	     -4.35494650	      6.17081716	      0.10770108	    -11.58343012	    -17.55065225	     -7.49999987	      4.27188130	      3.72925513	      2.10305197	     11.57221894	      0.20197332	     10.45730530	     -3.31007148	     -7.49999987	    -12.27310242	     -0.10615004	     -4.51539753	     34.08332327	      3.83179140	     65.28854475	    129.75473948	     95.01572258	     39.12422904	     -0.83265253	     65.30264015	    126.61811749	     74.07600248
      9.80000000	      6.90698813	     -2.95750435	      0.29387533	      0.09126107	      0.94022237	      0.04863896	     37.05863584	     -5.30458378	     -5.83009795	      5.07796149	      0.08862715	    -12.79569330	    -17.39354040	     -7.49999987	      3.91183278	      3.48885262	      1.35032863	     11.54942167	      0.20157543	      9.17061075	     -3.08683681	     -7.49999987	    -12.40445353	     -0.05845492	     -4.57742836	     34.10874487	      3.82846326	     65.13457468	    129.67901429	     95.01190103	     39.16123131	     -1.01045303	     65.25013797	    126.46754010	     74.06078171
      9.81666670	      7.87679884	     -3.67866742	      0.30714186	      0.09133399	      0.94051431	      0.04863948	     35.91144258	     -4.58952563	     -7.51991239	      3.77889088	      0.06595409	    -13.67122964	    -16.94110672	     -7.49999987	      2.65410321	      2.82611328	      0.94933534	     11.57425392	      0.20200884	      8.00042737	     -2.33876499	     -7.49999987	    -13.43959840	      0.74299229	     -4.60443864	     34.56553860	      3.90408088	     64.83401619	    129.28487500	     93.44805862	     39.35921395	     -1.13031553	     64.78231103	    126.41775716	     72.92528532
      9.83333330	      8.24111937	     -4.18735908	      0.33785848	      0.09246196	      0.94035874	      0.04775729	     35.56499317	     -4.22493932	     -8.72798723	      3.16874717	      0.05530507	    -14.65022176	    -17.73352553	     -7.49999987	      2.24444349	      2.32326602	      0.29711478	     11.67395258	      0.20374891	      6.78412249	     -1.92407783	     -7.49999987	    -14.00679915	      1.26979558	     -4.56638763	     34.88637042	      4.03445928	     64.90157217	    129.05922692	     92.87606238	     39.38052095	     -1.30043768	     64.61589952	    126.60005405	     72.62536219
      9.85000000	      8.46857106	     -4.70504424	      0.33180372	      0.09145891	      0.93940211	      0.04911076	     35.62196962	     -3.73693508	     -9.69678289	      3.04020730	      0.05306163	    -15.08307477	    -18.23933713	     -7.49999987	      2.04119146	      1.78895104	     -0.43824552	     11.85682436	      0.20694062	      6.35592608	     -1.15465449	     -7.49999987	    -14.21875735	      1.76939566	     -4.48592255	     35.28607466	      4.28018342	     64.62135494	    128.76410000	     94.73574026	     39.54886340	     -1.32420914	     63.99942091	    126.65647576	     74.30624345
      9.86666670	      8.62049713	     -5.25541335	      0.39384404	      0.09387477	      0.94123050	      0.04862163	     35.49485745	     -3.36048195	    -10.03698018	      2.91269437	      0.05083611	    -15.62169770	    -19.39688191	     -7.49999987	      1.86963975	      1.15027280	     -0.86207469	     12.02648602	      0.20990178	      5.89293108	     -0.37012629	     -7.49999987	    -14.35075329	      2.27116236	     -4.44830717	     35.60887668	      4.43883327	     64.81733832	    128.70290054	     93.24326437	     39.45813155	     -1.41788352	     63.69780793	    126.97007841	     73.65637594
      9.88333330	      8.76611541	     -5.79757207	      0.67992494	      0.09388639	      0.94441925	      0.04874676	     35.21850311	     -2.97666670	    -10.53121871	      2.88691406	      0.05038616	    -15.37403310	    -18.80844921	     -7.49999987	      1.81383551	      0.48388068	     -0.97329955	     12.13582458	      0.21181010	      5.29094872	     -0.07670525	     -7.49999987	    -14.57549787	      2.63363825	     -4.32697755	     35.67123955	      4.41800245	     64.93177141	    128.96555559	     91.57460982	     39.46288890	     -1.45345378	     63.80366791	    127.23444862	     72.75738286
      9.90000000	      9.09793624	     -6.15691636	      0.93157575	      0.09558612	      0.94470643	      0.04820128	     34.68796592	     -2.73744832	    -10.84649111	      2.61491519	      0.04563888	    -15.06110491	    -18.72089702	     -7.49999987	      1.42707384	      0.01377791	     -1.28305815	     12.10939142	      0.21134875	      5.40382230	      0.66635833	     -7.49999987	    -14.77097736	      2.80789359	     -4.32723160	     35.69725683	      4.50212225	     64.87513572	    128.86742848	     95.05185188	     39.48122406	     -1.47846217	     63.64738774	    127.26143243	     75.12887929
      9.91666670	      9.41955258	     -6.45521236	      1.09664851	      0.09414425	      0.94721185	      0.04695947	     34.20198985	     -2.54926408	    -11.47101738	      2.65465417	      0.04633246	    -14.55614164	    -18.17564595	     -7.49999987	      1.09744897	     -0.29953248	     -1.60868833	     12.25909779	      0.21396162	      5.19529431	      0.34207504	     -7.49999987	    -15.13445867	      3.02861655	     -4.37861560	     35.82333809	      4.46136892	     65.06343941	    128.81252787	     91.97165995	     39.78871187	     -1.55835653	     63.42337425	    127.11008499	     73.23463690
      9.93333330	      9.42816791	     -6.56760493	      1.19631139	      0.09738949	      0.94514434	      0.04839543	     34.00282941	     -2.44868657	    -11.26843758	      2.34956739	      0.04100769	    -14.37640484	    -18.03456669	     -7.49999987	      1.09230332	     -0.47991567	     -1.52373989	     12.28969484	      0.21449564	      5.31987704	      0.37928425	     -7.49999987	    -15.00375990	      2.95009482	     -4.24718147	     35.75252729	      4.48976349	     65.09488854	    128.79649414	     92.07394532	     39.77623941	     -1.64765798	     63.35866477	    127.18187497	     73.29576512
      9.95000000	      9.67795699	     -6.87964052	      1.20964455	      0.09756231	      0.94553289	      0.04769399	     33.56842743	     -2.18646688	    -11.81803120	      1.97180584	      0.03441450	    -13.91821391	    -16.99686741	     -7.49999987	      0.72519243	     -0.76788882	     -1.42835201	     12.18576025	      0.21268164	      5.32118867	      0.70666898	     -7.49999987	    -15.26664876	      3.29081860	     -4.33489947	     35.94999620	      4.60030280	     65.61322019	    128.64896036	     90.82379836	     39.58460871	     -1.81878591	     63.07502434	    127.57252064	     73.12783949
